<?xml version="1.0" standalone="no"?>
<!DOCTYPE svg PUBLIC "-//W3C//DTD SVG 20010904//EN"
 "http://www.w3.org/TR/2001/REC-SVG-20010904/DTD/svg10.dtd">
<svg version="1.0" xmlns="http://www.w3.org/2000/svg"
 width="4000.000000pt" height="4000.000000pt" viewBox="0 0 4000.000000 4000.000000"
 preserveAspectRatio="xMidYMid meet">

<g transform="translate(0.000000,4000.000000) scale(0.100000,-0.100000)"
fill="#000000" stroke="none">
<path d="M18961 27187 c-73 -135 -311 -523 -438 -716 -153 -232 -233 -341
-289 -391 l-39 -36 -320 -52 c-176 -29 -531 -84 -790 -123 -954 -143 -1343
-218 -1935 -375 -1150 -305 -2249 -697 -3360 -1199 -285 -128 -998 -482 -1280
-635 -1779 -964 -3370 -2123 -4940 -3600 -232 -218 -803 -789 -1017 -1017
-631 -672 -1239 -1392 -1781 -2111 -151 -201 -173 -234 -160 -245 9 -6 139
-111 289 -232 1207 -971 2445 -1749 3724 -2340 2494 -1153 5118 -1575 7890
-1269 579 64 1239 174 1830 305 233 52 597 140 612 148 7 3 -974 649 -2235
1471 l-2247 1466 -5 -938 -5 -938 -350 271 c-1277 989 -1657 1281 -1660 1278
-2 -2 -30 -289 -63 -637 -33 -349 -62 -636 -65 -638 -2 -2 -318 174 -703 392
-384 219 -706 399 -714 401 -14 4 -20 -36 -45 -267 -16 -148 -32 -275 -35
-280 -4 -6 -96 16 -231 54 -1333 383 -2496 909 -3564 1614 -228 150 -525 359
-525 369 0 12 147 212 260 352 597 748 1309 1469 2125 2152 909 761 2097 1579
3225 2221 2036 1159 4296 2057 6988 2778 402 108 454 119 607 130 408 28 843
-65 1705 -365 346 -120 522 -174 595 -182 47 -5 53 -3 102 36 97 76 368 339
673 653 646 664 1071 1086 1503 1491 246 232 444 423 440 424 -23 8 -2454 428
-2973 514 -333 55 -636 107 -673 115 -38 8 -74 14 -80 14 -7 0 -27 -28 -46
-63z m1294 -842 c863 -170 785 -153 785 -164 0 -5 -179 -181 -397 -392 -219
-211 -454 -438 -522 -504 -84 -82 -130 -120 -145 -119 -11 1 -208 68 -436 149
-228 82 -467 167 -531 189 -64 23 -117 46 -118 51 -1 8 363 603 547 893 27 44
38 53 55 48 12 -2 355 -70 762 -151z"/>
<path d="M20570 22195 l0 -145 185 0 185 0 0 -870 0 -870 180 0 180 0 0 870 0
870 185 0 185 0 0 145 0 145 -550 0 -550 0 0 -145z"/>
<path d="M23130 21326 l0 -1016 178 0 177 0 -3 435 -2 435 92 0 c143 0 196
-21 236 -95 14 -25 18 -79 23 -355 4 -218 10 -341 18 -372 l13 -48 179 0 c104
0 179 4 179 9 0 5 -5 22 -12 38 -8 18 -14 143 -19 368 -7 363 -12 402 -62 488
-31 52 -49 69 -117 106 l-53 29 39 20 c84 44 144 123 171 225 23 87 22 357 -1
445 -37 144 -119 227 -276 278 -48 15 -103 18 -407 22 l-353 4 0 -1016z m627
698 c58 -43 68 -75 71 -231 5 -169 -10 -236 -59 -277 -42 -35 -67 -41 -184
-41 l-100 0 -3 288 -2 289 124 -4 c108 -3 128 -6 153 -24z"/>
<path d="M25991 22288 c-14 -70 -77 -419 -146 -803 -31 -170 -73 -407 -95
-525 -22 -118 -55 -305 -75 -415 -20 -110 -38 -208 -41 -218 -5 -16 6 -17 162
-15 l168 3 30 198 31 197 202 0 c202 0 203 0 208 -22 6 -27 55 -354 55 -368 0
-6 71 -10 180 -10 99 0 180 2 180 5 0 2 -4 26 -10 52 -13 69 -60 323 -135 743
-36 201 -79 437 -95 525 -16 88 -50 275 -75 415 -25 140 -48 263 -51 273 -5
16 -25 17 -244 17 l-239 0 -10 -52z m295 -648 c26 -168 59 -381 73 -475 l27
-170 -154 -3 c-85 -1 -156 -1 -158 1 -2 2 12 107 31 233 59 381 115 743 116
751 3 36 25 -79 65 -337z"/>
<path d="M28310 21325 l0 -1015 314 0 c362 0 426 8 537 66 108 57 173 145 204
276 22 94 22 1253 0 1347 -32 132 -107 231 -219 286 -97 48 -164 55 -513 55
l-323 0 0 -1015z m647 699 c15 -12 37 -36 48 -55 19 -33 20 -52 20 -644 0
-592 -1 -611 -20 -644 -39 -67 -62 -76 -206 -80 l-129 -3 0 727 0 727 129 -4
c113 -3 133 -6 158 -24z"/>
<path d="M30920 21325 l0 -1015 485 0 485 0 0 145 0 145 -310 0 -310 0 2 313
3 312 243 3 243 2 -3 143 -3 142 -242 3 -243 2 0 265 0 265 308 2 307 3 3 143
3 142 -486 0 -485 0 0 -1015z"/>
<path d="M12795 21749 c-1088 -413 -1793 -779 -2454 -1274 -228 -172 -437
-351 -634 -544 l-158 -156 12 -35 c6 -19 15 -39 19 -43 4 -4 306 60 671 143
1731 393 1719 390 1781 457 29 31 233 341 675 1029 160 248 299 463 308 478
13 20 14 26 4 25 -8 0 -108 -36 -224 -80z"/>
<path d="M15705 19699 c-182 -32 -265 -59 -400 -132 -165 -88 -311 -258 -379
-440 -61 -162 -71 -226 -71 -462 0 -194 3 -230 22 -307 93 -365 296 -620 838
-1055 361 -290 520 -488 571 -709 22 -95 25 -293 6 -375 -27 -117 -109 -209
-215 -241 -24 -8 -93 -13 -162 -13 -146 1 -210 21 -279 91 -81 80 -106 186
-106 447 l0 167 -351 0 -352 0 6 -232 c6 -256 19 -343 76 -497 142 -386 496
-591 1021 -591 373 0 685 112 866 313 172 190 254 439 254 772 0 216 -29 375
-97 534 -117 274 -311 491 -778 868 -291 235 -429 383 -511 548 -59 120 -77
209 -71 350 6 143 30 210 101 280 69 69 134 90 276 89 131 -1 199 -24 264 -90
78 -78 105 -184 106 -411 l0 -133 350 0 350 0 0 143 c0 242 -28 402 -98 565
-80 186 -216 329 -397 420 -214 107 -566 149 -840 101z"/>
<path d="M19780 17533 l0 -2128 367 2 368 2 3 956 2 955 400 0 400 0 0 -955 0
-955 366 -2 c201 -2 368 -1 370 1 2 2 4 960 4 2128 l0 2123 -370 0 -370 0 0
-865 0 -865 -400 0 -400 0 0 865 0 865 -370 0 -370 0 0 -2127z"/>
<path d="M25485 19648 c-2 -7 -25 -130 -50 -273 -25 -143 -57 -318 -70 -390
-14 -71 -72 -393 -130 -715 -58 -322 -123 -682 -145 -800 -22 -118 -69 -379
-105 -580 -36 -201 -79 -437 -95 -525 -63 -341 -170 -939 -170 -949 0 -8 103
-10 345 -8 243 2 345 6 345 14 0 8 99 626 125 786 l6 32 424 0 c249 0 425 -4
425 -9 0 -5 11 -76 25 -158 14 -81 43 -262 65 -402 22 -140 41 -256 44 -258 2
-2 168 -5 370 -6 324 -2 366 0 366 13 0 9 -15 101 -34 205 -61 340 -189 1045
-276 1525 -29 157 -71 393 -95 525 -24 132 -67 368 -95 525 -29 157 -73 404
-100 550 -26 146 -74 410 -106 588 l-58 322 -504 0 c-393 0 -504 -3 -507 -12z
m515 -938 c187 -1182 240 -1519 269 -1700 15 -96 26 -178 24 -182 -5 -9 -663
-11 -663 -2 0 3 18 119 39 257 22 139 60 385 86 547 25 162 63 410 85 550 22
140 56 361 75 489 34 220 44 269 52 246 1 -6 17 -98 33 -205z"/>
<path d="M29930 17537 c0 -1168 2 -2126 4 -2128 2 -2 171 -3 375 -1 l371 2 0
910 0 910 181 0 c208 0 287 -14 370 -63 64 -38 110 -101 141 -195 21 -65 22
-85 29 -692 4 -400 11 -648 18 -690 15 -83 42 -180 50 -180 93 -2 751 -4 751
-3 0 1 -11 36 -24 77 -43 130 -48 203 -56 846 -5 338 -13 638 -18 666 -48 243
-134 393 -281 491 -30 20 -86 49 -124 64 l-70 27 91 47 c202 104 319 266 373
515 21 96 23 131 23 410 0 248 -3 322 -17 396 -75 396 -306 611 -740 691 -79
14 -189 17 -769 20 l-678 4 0 -2124z m1282 1475 c84 -41 122 -88 155 -190 23
-70 26 -97 30 -297 8 -344 -15 -471 -103 -565 -87 -93 -185 -120 -441 -120
l-173 0 0 606 0 605 233 -3 233 -3 66 -33z"/>
<path d="M34960 17535 l0 -2125 366 -2 c201 -2 368 -1 370 1 2 2 4 306 4 675
l0 671 83 150 c45 83 112 203 147 268 35 64 67 117 70 117 3 0 144 -421 315
-936 170 -515 313 -938 317 -940 7 -5 767 -6 770 -2 1 2 -199 607 -446 1345
l-448 1342 133 233 c137 241 385 680 469 828 27 47 101 177 164 289 64 112
116 205 116 207 0 2 -167 3 -372 2 l-372 -3 -166 -315 c-91 -173 -300 -569
-464 -880 -164 -311 -302 -569 -307 -574 -5 -6 -9 360 -9 882 l0 892 -370 0
-370 0 0 -2125z"/>
</g>
</svg>
